<svg xmlns="http://www.w3.org/2000/svg"
     width="100" height="100" viewBox="0 0 900 900"
     preserveAspectRatio="xMidYMid meet">
    <g transform="translate(0,810) scale(0.1,-0.1)"
       fill="currentColor" stroke="none">
        <path d="M6196 6422 c-42 -15 -85 -53 -307 -276 -164 -165 -259 -267 -259
-280 0 -29 1108 -1136 1137 -1136 15 0 97 75 273 252 208 208 256 261 276 306
32 72 33 160 3 223 -32 67 -836 866 -904 899 -64 30 -152 35 -219 12z"/>
        <path d="M4561 4793 c-838 -840 -1377 -1375 -2041 -2027 -716 -703 -832 -821
-856 -868 l-24 -47 0 -540 c0 -477 2 -541 16 -555 14 -14 79 -16 566 -16 527
0 552 1 582 19 31 19 606 596 804 806 142 151 2192 2217 2372 2390 80 77 243
237 363 356 218 218 233 238 208 278 -12 18 -1026 1036 -1058 1061 -14 11 -33
20 -41 20 -8 0 -409 -395 -891 -877z"/>
    </g>
</svg>